<svg width="206" height="63" viewBox="0 0 206 63" fill="none" xmlns="http://www.w3.org/2000/svg">
<g style="mix-blend-mode:multiply">
<path d="M2.8244 61.6374C1.39025 61.6374 0.673175 60.6813 0.673175 58.7691C0.673175 58.4504 0.673175 58.1051 0.673175 57.7333C0.726292 57.3615 0.779409 56.9631 0.832525 56.5382C0.991875 55.6352 1.12467 54.3604 1.2309 52.7138C1.33713 51.0141 1.41681 49.1284 1.46993 47.0569C1.57616 44.9322 1.62928 42.8341 1.62928 40.7625C1.62928 38.4254 1.5496 36.2476 1.39025 34.2292C1.28402 32.1576 1.04499 30.5376 0.673175 29.369C1.20434 29.2628 1.78863 28.9706 2.42603 28.4926C3.06343 28.0145 3.75394 27.6958 4.49758 27.5365C4.65693 27.4834 4.86939 27.4568 5.13498 27.4568C6.03796 27.4568 6.59568 27.9349 6.80815 28.891C7.07373 29.8471 7.20653 31.0156 7.20653 32.3967C7.20653 33.3528 7.17997 34.4948 7.12685 35.8227C7.12685 37.0975 7.07373 38.2129 6.9675 39.169C7.55178 37.4693 8.18918 36.0086 8.8797 34.7869C9.57022 33.5121 10.3139 32.2904 11.1106 31.1219C12.2261 29.4221 13.3681 28.0942 14.5366 27.1381C15.7583 26.182 16.9003 25.704 17.9627 25.704C19.2375 25.704 20.0608 26.1023 20.4326 26.8991C20.8575 27.6427 21.07 28.5723 21.07 29.6877C21.07 30.4314 21.0169 31.2281 20.9106 32.078C20.8575 32.8747 20.8044 33.6715 20.7513 34.4682L20.2732 41.5593L21.07 39.169C21.6543 37.4693 22.2917 36.0086 22.9822 34.7869C23.6727 33.5121 24.4163 32.2904 25.2131 31.1219C26.3285 29.4221 27.4705 28.0942 28.6391 27.1381C29.8608 26.182 31.0028 25.704 32.0651 25.704C33.5524 25.704 34.5085 26.2086 34.9334 27.2178C35.3584 28.1739 35.5708 29.369 35.5708 30.8032C35.5708 31.3875 35.5443 31.9983 35.4912 32.6357C35.4912 33.22 35.4646 33.8308 35.4115 34.4682C35.3584 35.2119 35.2521 36.7257 35.0928 39.0097C34.9334 41.2406 34.8006 43.6574 34.6944 46.2601C34.6944 46.4726 34.6678 46.8975 34.6147 47.5349C34.6147 48.1723 34.6147 48.8894 34.6147 49.6861C34.6147 50.9078 34.6678 52.2092 34.7741 53.5902C34.9334 54.9181 35.199 56.0601 35.5708 57.0162C35.9958 57.9723 36.58 58.4504 37.3237 58.4504C38.3329 58.4504 39.1828 57.9723 39.8733 57.0162C40.5638 56.007 41.1215 54.8916 41.5465 53.6699C42.0245 52.4482 42.3432 51.4921 42.5026 50.8016C42.715 50.1642 42.9806 49.8455 43.2993 49.8455C43.618 49.8455 43.7774 50.1642 43.7774 50.8016V50.9609C43.7774 51.3328 43.6977 51.8108 43.5383 52.3951C43.4321 52.9794 43.2727 53.5637 43.0603 54.1479C42.4229 56.1133 41.5199 57.8396 40.3513 59.3268C39.1828 60.761 37.483 61.4781 35.2521 61.4781C33.4462 61.4781 32.0917 60.9203 31.1887 59.8049C30.3388 58.6363 29.7546 57.2553 29.4359 55.6618C29.1703 54.0683 29.0375 52.5544 29.0375 51.1203V49.6861C29.1437 47.349 29.2234 45.3306 29.2765 43.6308C29.3296 41.878 29.3827 40.0986 29.4359 38.2926C29.4359 38.027 29.4359 37.7083 29.4359 37.3365C29.489 36.9647 29.5155 36.5398 29.5155 36.0617C29.5155 35.0525 29.4359 34.0698 29.2765 33.1137C29.1172 32.1576 28.7453 31.6796 28.1611 31.6796C27.7361 31.6796 27.0456 32.2639 26.0895 33.4324C25.2396 34.601 24.3632 36.2211 23.4602 38.2926C22.6104 40.3642 21.8933 42.7279 21.309 45.3837C20.7247 48.0395 20.4326 50.8016 20.4326 53.6699C20.4326 54.6791 20.4591 55.6883 20.5123 56.6975C20.6185 57.6536 20.7778 58.6363 20.9903 59.6455C20.8841 59.6986 20.6716 59.7783 20.3529 59.8845C20.0873 59.9908 19.7421 60.0439 19.3171 60.0439C18.7328 60.0439 18.122 59.858 17.4846 59.4862C16.8472 59.1144 16.316 58.3442 15.8911 57.1756C15.5193 56.1133 15.2537 54.9978 15.0944 53.8292C14.9881 52.6076 14.935 51.3593 14.935 50.0845C14.935 48.2254 15.0147 46.3398 15.174 44.4276C15.3334 42.5154 15.4662 40.6298 15.5724 38.7707V37.5755C15.5724 36.885 15.5458 36.1148 15.4927 35.265C15.4396 34.362 15.2803 33.5918 15.0147 32.9544C14.8022 32.2639 14.457 31.9186 13.9789 31.9186C13.3946 31.9186 12.7307 32.4232 11.987 33.4324C11.084 34.601 10.1545 36.3273 9.1984 38.6113C8.2423 40.8422 7.44555 43.3918 6.80815 46.2601C6.17075 49.0753 5.85205 51.9967 5.85205 55.0244C5.85205 56.8303 6.0114 58.6629 6.3301 60.5219C5.74582 60.8406 5.13498 61.1062 4.49758 61.3187C3.91329 61.5312 3.35557 61.6374 2.8244 61.6374ZM51.8538 61.7968C50.0478 61.7968 48.5606 61.3187 47.392 60.3626C46.2765 59.4065 45.4001 58.1583 44.7627 56.6179C44.1784 55.0775 43.7535 53.4043 43.4879 51.5983C43.2754 49.7393 43.1692 47.9333 43.1692 46.1804C43.1692 44.8525 43.2223 43.6308 43.3286 42.5154C43.4348 41.3468 43.5145 40.3376 43.5676 39.4877C43.8332 37.2568 44.4175 35.0259 45.3204 32.795C46.2234 30.511 47.5513 28.6254 49.3042 27.1381C51.057 25.5977 53.3676 24.8275 56.2359 24.8275C58.7324 24.8275 60.5384 25.8368 61.6538 27.8552C62.7693 29.8736 63.4332 32.2639 63.6457 35.0259C64.5487 35.6633 65.372 35.982 66.1156 35.982C67.0717 35.982 67.9747 35.504 68.8246 34.5479C69.6744 33.5918 70.3915 31.9983 70.9758 29.7674C70.2853 29.0769 69.7541 28.2536 69.3823 27.2975C69.0105 26.2883 68.8246 25.3056 68.8246 24.3495C68.8246 23.234 69.0636 22.2779 69.5416 21.4812C70.0197 20.6313 70.7633 20.2064 71.7725 20.2064C71.8788 20.2064 71.9584 20.233 72.0116 20.2861C72.1178 20.2861 72.224 20.2861 72.3303 20.2861C73.0208 20.3923 73.4988 20.7907 73.7644 21.4812C74.03 22.1717 74.1628 22.9685 74.1628 23.8714C74.1628 25.0931 74.0034 26.3679 73.6847 27.6958C73.4192 28.9706 73.1801 29.9002 72.9677 30.4845C72.8614 30.6969 72.8083 30.8563 72.8083 30.9625C73.0739 31.0156 73.3129 31.0422 73.5254 31.0422C73.791 31.0422 74.03 31.0422 74.2425 31.0422C75.7297 31.0422 76.7655 30.7501 77.3498 30.1658C77.7747 29.7408 78.2528 29.1566 78.7839 28.4129C79.3682 27.6162 80.2446 27.2178 81.4132 27.2178C82.3162 27.2178 83.3254 27.5099 84.4409 28.0942C84.2815 28.4129 84.069 28.891 83.8035 29.5284C83.5379 30.1127 83.2457 30.8828 82.927 31.8389C82.1303 34.2292 81.4132 36.9381 80.7758 39.9658C80.1384 42.9403 79.7666 45.9945 79.6604 49.1284V50.5626C79.6604 51.5718 79.74 52.7404 79.8994 54.0683C80.0587 55.3431 80.3509 56.4585 80.7758 57.4146C81.2539 58.3707 81.9709 58.9019 82.927 59.0081H83.2457C84.3081 59.0081 85.1579 58.6894 85.7953 58.052C86.4327 57.3615 86.9639 56.5913 87.3888 55.7414C87.8138 54.9978 88.1856 54.0948 88.5043 53.0325C88.8761 51.9702 89.2479 50.8547 89.6197 49.6861C89.8322 49.2081 90.0447 48.9691 90.2571 48.9691C90.5227 48.9691 90.6555 49.2878 90.6555 49.9252V50.2439C90.6024 51.3062 90.4165 52.4482 90.0978 53.6699C89.7791 54.8385 89.301 55.9274 88.6636 56.9366L87.6279 58.5301C86.4593 60.2298 84.8658 61.239 82.8474 61.5577C82.6349 61.6108 82.3959 61.6374 82.1303 61.6374C81.9178 61.6374 81.6788 61.6374 81.4132 61.6374C79.501 61.6374 78.0403 61.0797 77.0311 59.9642C76.0219 58.7957 75.3048 57.3349 74.8799 55.5821C74.508 53.7761 74.3221 51.9436 74.3221 50.0845C74.3221 48.7035 74.3753 47.4021 74.4815 46.1804C74.6408 44.9056 74.7736 43.7902 74.8799 42.8341C75.3579 38.9035 75.9422 35.6102 76.6327 32.9544C75.7828 33.1137 75.0127 33.1934 74.3221 33.1934C73.8441 33.1934 73.4192 33.1669 73.0473 33.1137C72.6755 33.0075 72.3303 32.9278 72.0116 32.8747C71.1617 34.6276 70.2056 35.8758 69.1433 36.6194C68.0809 37.31 67.0186 37.6552 65.9563 37.6552C65.3189 37.6552 64.6018 37.5224 63.805 37.2568V37.8942C63.805 40.1783 63.6457 42.4092 63.327 44.5869C63.0614 46.7116 62.7427 48.4113 62.3709 49.6861C61.946 51.3328 61.2554 53.1122 60.2993 55.0244C59.3432 56.8835 58.1481 58.477 56.714 59.8049C55.3329 61.1328 53.7129 61.7968 51.8538 61.7968ZM54.4831 57.4146C55.5985 57.4146 56.5281 56.8835 57.2717 55.8211C58.0684 54.7588 58.7324 53.5371 59.2636 52.1561C59.7947 50.775 60.1665 49.6065 60.379 48.6504C60.5915 47.8536 60.7508 46.8178 60.8571 45.543C61.0164 44.2682 61.0961 42.9403 61.0961 41.5593C61.0961 40.4438 61.0164 39.3284 60.8571 38.2129C60.7508 37.0444 60.5649 35.9555 60.2993 34.9463C59.5557 34.362 58.759 33.5387 57.9091 32.4763C57.1123 31.3609 56.714 30.2986 56.714 29.2893C56.714 28.3332 57.1655 27.5896 58.0684 27.0584C57.5373 26.6866 57.0327 26.5007 56.5546 26.5007C55.5985 26.5007 54.7486 27.0319 54.005 28.0942C53.2614 29.1566 52.624 30.4314 52.0928 31.9186C51.6148 33.4059 51.2164 34.84 50.8977 36.2211C50.6321 37.549 50.4728 38.4785 50.4196 39.0097C50.3665 39.594 50.2868 40.497 50.1806 41.7186C50.0744 42.8872 50.0213 44.1886 50.0213 45.6227C50.0213 47.4287 50.1275 49.2347 50.34 51.0406C50.6055 52.8466 51.057 54.3604 51.6944 55.5821C52.3318 56.8038 53.2614 57.4146 54.4831 57.4146ZM112.003 61.3984C110.091 61.3984 108.631 60.6016 107.621 59.0081C106.665 57.4146 106.001 55.3696 105.629 52.8731C105.311 50.3767 105.151 47.7739 105.151 45.065C104.461 47.6146 103.584 50.1376 102.522 52.6341C101.46 55.1306 100.265 57.2022 98.9367 58.8488C97.6619 60.4954 96.3075 61.3187 94.8733 61.3187C93.5985 61.3187 92.5627 60.7344 91.766 59.5658C90.9692 58.3442 90.3849 56.7507 90.0131 54.7853C89.6413 52.82 89.4554 50.6954 89.4554 48.4113C89.4554 46.7647 89.5882 44.9056 89.8538 42.8341C90.1194 40.7625 90.5443 38.691 91.1286 36.6194C91.7129 34.5479 92.5096 32.6623 93.5188 30.9625C94.5812 29.2097 95.8825 27.8021 97.4229 26.7397C98.9633 25.6774 100.796 25.1462 102.92 25.1462C104.142 25.1462 105.125 25.4118 105.868 25.943C105.975 23.1278 106.107 20.4189 106.267 17.8161C106.426 15.2134 106.612 13.1684 106.825 11.6812C106.984 10.672 107.196 9.52995 107.462 8.25514C107.781 6.98034 108.206 5.75866 108.737 4.5901C109.321 3.36841 110.012 2.3592 110.808 1.56244C111.658 0.765694 112.667 0.36732 113.836 0.36732C115.323 0.36732 116.439 0.739136 117.182 1.48277C117.926 2.17329 118.431 3.07627 118.696 4.19172C119.015 5.25405 119.174 6.39606 119.174 7.61775C119.174 8.30826 119.148 9.02534 119.095 9.76897C119.041 10.4595 118.962 11.0969 118.855 11.6812C118.537 14.2839 117.926 17.1522 117.023 20.2861C116.12 23.42 115.058 26.4742 113.836 29.4487C112.667 32.3701 111.525 34.8932 110.41 37.0178C110.357 37.3896 110.304 38.2129 110.251 39.4877C110.197 40.7625 110.171 42.2498 110.171 43.9495C110.171 45.543 110.197 47.2162 110.251 48.9691C110.357 50.6688 110.543 52.2623 110.808 53.7496C111.074 55.1837 111.419 56.3788 111.844 57.3349C112.322 58.2379 112.933 58.6894 113.677 58.6894C114.42 58.6894 115.084 58.3442 115.668 57.6536C116.253 56.91 116.784 56.007 117.262 54.9447C117.74 53.8824 118.112 52.8731 118.377 51.917C118.696 50.9078 118.935 50.1642 119.095 49.6861C119.201 49.2612 119.413 49.0487 119.732 49.0487C119.997 49.0487 120.13 49.3409 120.13 49.9252V50.3235C120.13 51.7577 119.785 53.3512 119.095 55.104C118.457 56.8038 117.528 58.291 116.306 59.5658C115.137 60.7875 113.703 61.3984 112.003 61.3984ZM110.251 33.5121C111.26 31.3343 112.216 28.891 113.119 26.182C114.022 23.42 114.765 20.6048 115.35 17.7365C115.987 14.8682 116.306 12.1858 116.306 9.68929C116.306 9.26436 116.306 8.86599 116.306 8.49417C116.306 8.12235 116.279 7.75054 116.226 7.37872C116.173 6.63509 116.014 5.99769 115.748 5.46652C115.483 4.88224 115.137 4.5901 114.712 4.5901C114.5 4.5901 114.234 4.77601 113.916 5.14782C113.597 5.46652 113.278 6.07736 112.96 6.98035C112.8 7.4584 112.588 8.54729 112.322 10.247C112.11 11.8936 111.871 13.859 111.605 16.143C111.393 18.3739 111.18 20.6579 110.968 22.995C110.755 25.279 110.569 27.3506 110.41 29.2097C110.304 31.0156 110.251 32.2904 110.251 33.0341V33.5121ZM97.6619 54.7853C98.5649 54.7853 99.4148 54.1479 100.212 52.8731C101.008 51.5452 101.725 49.9517 102.363 48.0926C103.053 46.2336 103.611 44.4807 104.036 42.8341C104.62 40.7094 105.019 38.5848 105.231 36.4601C105.497 34.2823 105.656 32.1045 105.709 29.9267L105.789 27.6958C105.47 27.5365 105.098 27.4568 104.673 27.4568C103.505 27.4568 102.31 28.0411 101.088 29.2097C99.8663 30.3251 98.8836 31.653 98.14 33.1934C97.1839 35.2119 96.4668 37.5755 95.9888 40.2845C95.5638 42.9934 95.3514 45.543 95.3514 47.9333C95.3514 48.3051 95.3514 48.7035 95.3514 49.1284C95.3514 49.5534 95.3779 49.9517 95.431 50.3235C95.5373 51.917 95.8028 53.0591 96.2278 53.7496C96.6527 54.4401 97.1308 54.7853 97.6619 54.7853ZM129.86 62.5138C127.31 62.5138 125.239 61.7436 123.645 60.2032C122.105 58.6097 120.963 56.671 120.219 54.387C119.529 52.0498 119.184 49.7658 119.184 47.5349C119.184 44.9853 119.449 42.4357 119.98 39.8861C120.511 37.2834 121.335 34.9197 122.45 32.795C123.619 30.6704 125.079 28.9706 126.832 27.6958C128.585 26.3679 130.657 25.704 133.047 25.704C134.747 25.704 136.075 26.2086 137.031 27.2178C137.987 28.227 138.465 29.7143 138.465 31.6796C138.465 34.3354 137.801 36.6991 136.473 38.7707C135.198 40.7891 133.578 42.4357 131.613 43.7105C129.648 44.9853 127.603 45.8617 125.478 46.3398V46.7382C125.478 48.916 125.69 50.9609 126.115 52.8731C126.593 54.7322 127.337 56.2461 128.346 57.4146C129.408 58.5301 130.79 59.0878 132.489 59.0878C134.561 59.0878 136.154 58.2379 137.27 56.5382C138.385 54.7853 139.262 52.581 139.899 49.9252C139.952 49.7127 140.032 49.5268 140.138 49.3674C140.297 49.155 140.43 49.0487 140.536 49.0487C141.014 49.0487 141.227 49.394 141.174 50.0845C141.014 51.5187 140.696 52.8731 140.218 54.1479C139.74 55.4227 139.235 56.5116 138.704 57.4146C137.695 59.0612 136.473 60.3095 135.039 61.1594C133.658 62.0623 131.932 62.5138 129.86 62.5138ZM125.558 44.5073C127.257 44.0823 128.745 43.259 130.019 42.0373C131.294 40.7625 132.277 39.2753 132.967 37.5755C133.711 35.8758 134.083 34.1495 134.083 32.3967V31.9983C134.083 31.0422 133.923 30.1392 133.605 29.2893C133.339 28.4395 132.808 28.0145 132.011 28.0145C131.055 28.0145 130.205 28.4926 129.462 29.4487C128.771 30.3517 128.16 31.5202 127.629 32.9544C127.151 34.3885 126.753 35.8758 126.434 37.4162C126.115 38.9566 125.876 40.3642 125.717 41.639C125.611 42.9138 125.558 43.8433 125.558 44.4276V44.5073ZM150.392 62.5138C147.948 62.5138 145.983 61.9295 144.496 60.761C143.062 59.5393 141.999 57.9989 141.309 56.1398C140.671 54.2276 140.273 52.2092 140.114 50.0845C140.061 49.7127 140.034 49.3409 140.034 48.9691C140.034 48.5441 140.034 48.1458 140.034 47.7739C140.034 45.5962 140.247 43.259 140.671 40.7625C141.15 38.2661 141.92 35.9289 142.982 33.7511C144.044 31.5202 145.452 29.7143 147.205 28.3332C148.958 26.9522 151.109 26.2617 153.659 26.2617C155.199 26.2617 156.447 26.8725 157.403 28.0942C158.412 29.2628 158.917 30.6173 158.917 32.1576C158.917 33.8043 158.651 35.0259 158.12 35.8227C157.589 36.5663 156.952 36.9381 156.208 36.9381C154.933 36.9381 154.296 35.5837 154.296 32.8747C154.296 31.8124 154.137 30.8297 153.818 29.9267C153.499 29.0238 152.888 28.5723 151.985 28.5723C150.976 28.5723 150.126 29.0769 149.436 30.0861C148.798 31.0422 148.267 32.2904 147.842 33.8308C147.417 35.3181 147.072 36.9116 146.806 38.6113C146.594 40.2579 146.435 41.8249 146.328 43.3121C146.275 44.7463 146.249 45.8617 146.249 46.6585V46.9772C146.249 49.1019 146.461 51.0937 146.886 52.9528C147.311 54.8119 148.028 56.2992 149.037 57.4146C150.047 58.5301 151.401 59.0878 153.101 59.0878C156.235 59.0878 158.572 56.432 160.112 51.1203C160.272 50.4829 160.564 50.1642 160.989 50.1642C161.36 50.1642 161.546 50.536 161.546 51.2796C161.546 51.6515 161.467 52.1295 161.307 52.7138C160.457 55.6352 159.156 57.9989 157.403 59.8049C155.65 61.6108 153.313 62.5138 150.392 62.5138ZM183.359 61.3984C181.712 61.3984 180.384 60.8938 179.375 59.8845C178.366 58.8222 177.569 57.4943 176.985 55.9008C176.453 54.2542 176.082 52.6076 175.869 50.9609C175.657 49.2612 175.55 47.7739 175.55 46.4991C174.913 48.8894 174.09 51.2265 173.081 53.5105C172.124 55.7946 171.062 57.6802 169.894 59.1675C168.725 60.6016 167.45 61.3187 166.069 61.3187H165.989C164.715 61.3187 163.652 60.7344 162.802 59.5658C161.953 58.3442 161.315 56.7507 160.89 54.7853C160.465 52.82 160.253 50.6954 160.253 48.4113V47.6146C160.253 45.4899 160.439 43.1528 160.811 40.6032C161.182 38.0005 161.846 35.5306 162.802 33.1934C163.759 30.8563 165.06 28.9441 166.707 27.4568C168.406 25.9164 170.558 25.1462 173.16 25.1462C174.169 25.1462 175.072 25.3853 175.869 25.8633C176.719 26.2883 177.33 26.9257 177.702 27.7755C178.074 27.3506 178.578 27.0053 179.216 26.7397C179.853 26.4742 180.623 26.3414 181.526 26.3414C181.845 26.3414 182.19 26.3679 182.562 26.421C182.987 26.4742 183.412 26.5538 183.837 26.6601C183.518 27.8818 183.146 29.5549 182.721 31.6796C182.296 33.8043 181.924 36.1414 181.606 38.691C181.34 41.1875 181.207 43.6308 181.207 46.0211V46.3398C181.207 47.349 181.261 48.5441 181.367 49.9252C181.473 51.3062 181.659 52.6607 181.924 53.9886C182.19 55.3165 182.562 56.432 183.04 57.3349C183.518 58.2379 184.129 58.6894 184.872 58.6894H184.952C185.377 58.6894 185.829 58.477 186.307 58.052C186.838 57.6271 187.395 56.8303 187.98 55.6618C188.777 54.1214 189.52 52.1295 190.211 49.6861C190.317 49.2081 190.529 48.9691 190.848 48.9691C191.114 48.9691 191.246 49.2878 191.246 49.9252V50.2439C191.14 51.6249 190.768 53.1918 190.131 54.9447C189.494 56.6975 188.591 58.2114 187.422 59.4862C186.307 60.761 184.952 61.3984 183.359 61.3984ZM168.778 54.7853C169.628 54.7853 170.398 54.1745 171.089 52.9528C171.832 51.7311 172.496 50.2439 173.081 48.491C173.665 46.7382 174.169 45.0384 174.594 43.3918C175.232 40.9485 175.657 38.4785 175.869 35.982C176.082 33.4324 176.533 30.936 177.224 28.4926C176.586 27.8021 175.869 27.4568 175.072 27.4568C173.904 27.4568 172.709 28.0411 171.487 29.2097C170.265 30.3782 169.309 31.7062 168.619 33.1934C167.769 35.0525 167.131 37.2303 166.707 39.7268C166.335 42.2233 166.149 44.6135 166.149 46.8975C166.149 47.4818 166.149 48.0661 166.149 48.6504C166.202 49.2347 166.255 49.7924 166.308 50.3235C166.414 51.917 166.707 53.0591 167.185 53.7496C167.716 54.4401 168.247 54.7853 168.778 54.7853ZM197.709 20.6844C196.7 20.6844 195.797 20.3126 195.001 19.569C194.257 18.8254 193.885 17.9224 193.885 16.86C193.885 15.7977 194.257 14.8947 195.001 14.1511C195.797 13.4075 196.7 13.0356 197.709 13.0356C198.772 13.0356 199.675 13.4075 200.418 14.1511C201.162 14.8947 201.534 15.7977 201.534 16.86C201.534 17.9224 201.162 18.8254 200.418 19.569C199.675 20.3126 198.772 20.6844 197.709 20.6844ZM197.152 61.3984C195.24 61.3984 193.726 60.6016 192.61 59.0081C191.548 57.3615 190.778 55.29 190.3 52.7935C189.875 50.2439 189.662 47.588 189.662 44.826C189.662 42.542 189.769 40.3376 189.981 38.2129C190.247 36.0352 190.539 34.1495 190.857 32.556C191.229 30.9094 191.574 29.7408 191.893 29.0503C192.212 28.4129 192.716 27.8286 193.407 27.2975C194.151 26.7132 195.133 26.421 196.355 26.421C197.046 26.421 197.736 26.5007 198.427 26.6601C197.895 28.5192 197.258 31.0953 196.514 34.3885C195.771 37.6818 195.399 41.3203 195.399 45.304C195.399 46.6851 195.425 48.1723 195.479 49.7658C195.532 51.3062 195.664 52.7669 195.877 54.1479C196.089 55.4759 196.408 56.5648 196.833 57.4146C197.311 58.2645 197.922 58.6894 198.666 58.6894H198.745C199.17 58.6894 199.622 58.477 200.1 58.052C200.631 57.6271 201.189 56.8303 201.773 55.6618C202.57 54.1214 203.313 52.1295 204.004 49.6861C204.11 49.2081 204.322 48.9691 204.641 48.9691C204.907 48.9691 205.04 49.2878 205.04 49.9252V50.2439C204.933 51.6249 204.562 53.1918 203.924 54.9447C203.287 56.6975 202.384 58.2114 201.215 59.4862C200.1 60.761 198.745 61.3984 197.152 61.3984Z" fill="white"/>
</g>
</svg>
